<?xml version="1.0" encoding="utf-8"?>
<!-- Generator: Adobe Illustrator 24.1.2, SVG Export Plug-In . SVG Version: 6.00 Build 0)  -->
<svg version="1.1" id="Слой_1" xmlns="http://www.w3.org/2000/svg" xmlns:xlink="http://www.w3.org/1999/xlink" x="0px" y="0px"
	 viewBox="0 0 935 78" style="enable-background:new 0 0 935 78;" xml:space="preserve">
<style type="text/css">
	.st0{fill-rule:evenodd;clip-rule:evenodd;fill:#009846;}
	.st1{fill-rule:evenodd;clip-rule:evenodd;fill:#EE7427;}
	.st2{fill-rule:evenodd;clip-rule:evenodd;fill:#E31E24;}
	.st3{fill-rule:evenodd;clip-rule:evenodd;fill:#1F4B99;}
	.st4{fill-rule:evenodd;clip-rule:evenodd;fill:none;}
</style>
<g>
	<path class="st0" d="M41,0.6L41,0.6v25.3c0.3,7,4.3,10.5,11.4,10.9h24.5L41,0.6z"/>
	<path class="st1" d="M41,77.6L41,77.6V52.3c0.3-7,4.3-10.5,11.4-10.9h24.5L41,77.6z"/>
	<path class="st2" d="M36.5,77.6L36.5,77.6V52.3c-0.3-7-4.3-10.5-11.4-10.9H0.7L36.5,77.6z"/>
	<path class="st3" d="M36.6,0.6L36.6,0.6v25.3c-0.3,7-4.3,10.5-11.4,10.9H0.7L36.6,0.6z"/>
	<g>
		<rect x="95.7" y="15" class="st4" width="864.3" height="47"/>
		<path d="M100.9,15.1h14.3v34.4h32.4v12h-46.7V15.1z"/>
		<path d="M155.3,61.7V15.2h14.3v46.5H155.3z"/>
		<path d="M178.3,61.5V15h49.7v12h-35.4v8.1H226v12h-33.4v14.4H178.3z"/>
		<path d="M238.9,61.5V15h50v11.2h-35.8v6.5h34.1v11.2h-34.1v6.4h35.8v11.2H238.9z"/>
		<path d="M305.3,42.4V32h47.5v10.4H305.3z"/>
		<path d="M393,15.2l12.2,26.1c0.1,0.3,0.3,1.3,0.5,3c0.2,1.7,0.4,2.6,0.6,2.6c0.2,0,0.3-0.5,0.5-1.5c0.2-1,0.4-2.4,0.6-4.1
			l12.2-26.1H444v46.5h-14.3V29.1c0-0.6,0.1-1.3,0.3-2.1c0.2-0.8,0.3-1.3,0.3-1.5c0-0.3-0.1-0.5-0.4-0.5c-0.2,0-0.4,0.3-0.7,0.8
			c-0.3,0.5-0.5,1-0.7,1.4l-16.5,34.6h-11.7l-17.8-34.6c-0.3-0.6-0.5-1.1-0.7-1.5c-0.2-0.4-0.4-0.7-0.6-0.7c-0.3,0-0.4,0.2-0.4,0.5
			c0,0,0.2,0.8,0.5,2.1c0.1,0.6,0.2,1.1,0.2,1.5v32.6h-14.3V15.2H393z"/>
		<path d="M456.2,61.5V15h50v11.2h-35.8v6.5h34.1v11.2h-34.1v6.4h35.8v11.2H456.2z"/>
		<path d="M518.4,15H560c5.1,0,8.7,0.9,10.9,2.8c2.3,2,3.4,5.6,3.4,10.8c0,4-0.5,7-1.4,8.9c-1,1.9-2.6,3.3-5,4.3
			c2.6,1.1,4.3,2.3,5.2,3.4c0.8,1.1,1.3,3.1,1.3,6v10.4H560v-8.3c0-1.2-0.3-2.2-1-3.1c-0.8-1.1-2.1-1.6-3.7-1.6h-22.6v13h-14.3V15z
			 M532.7,27v9.5h22.9c1.6,0,2.7-0.3,3.3-1c0.7-0.7,1-1.9,1-3.7s-0.3-3-1-3.7c-0.7-0.7-1.8-1-3.3-1H532.7z"/>
		<path d="M614.9,14.4c13.3,0,21.4,1.1,24.5,3.3c2.7,1.9,4,7,4,15.2h-14.4c0-2.7-0.7-4.4-2.1-5.1c-1.8-0.9-5.8-1.4-12-1.4
			c-7,0-11.1,0.5-12.3,1.6c-1.2,1.1-1.8,4.5-1.8,10.3c0,5.7,0.6,9.1,1.8,10.2c1.2,1.1,5.3,1.6,12.3,1.6c6.3,0,10.3-0.4,11.9-1.1
			c1.6-0.8,2.4-2.5,2.4-5.4h14.3c0,8.3-1.3,13.3-3.9,15.2c-3.1,2.2-11.3,3.3-24.6,3.3c-13.3,0-21.4-1.2-24.2-3.6
			c-2.8-2.4-4.2-9.2-4.2-20.3c0-11.1,1.3-17.7,4-20.1C593.4,15.7,601.5,14.4,614.9,14.4z"/>
		<path d="M653.1,15.2h14.3v16.3h30.9V15.2h14.3v46.5h-14.3V43.5h-30.9v18.2h-14.3V15.2z"/>
		<path d="M744.6,15.1h24.6l23,46.4h-16.7l-4.4-7.8h-28.3l-4.4,7.8h-16.7L744.6,15.1z M757.9,25.6h-2.2L748,41.7h17.6L757.9,25.6z"
			/>
		<path d="M864.5,61.7h-23.4l-24.5-34.4c-0.3-0.5-0.5-1.1-0.8-1.7c-0.3-0.6-0.6-0.9-0.9-0.9c0,0.4,0,0.9,0.1,1.3
			c0.7,2.3,1.1,3.5,1.1,3.6v32.1h-14.3V15.2h23.4l24.4,34.4c0.3,0.6,0.5,1.1,0.8,1.7c0.3,0.6,0.6,0.8,0.9,0.8c0-0.4-0.1-0.9-0.1-1.3
			c-0.3-1.2-0.7-2.4-1-3.6v-32h14.3V61.7z"/>
		<path d="M878.1,27V15h55.3v12h-20.5v34.5h-14.3V27H878.1z"/>
	</g>
</g>
<g>
</g>
<g>
</g>
<g>
</g>
<g>
</g>
<g>
</g>
<g>
</g>
<g>
</g>
<g>
</g>
<g>
</g>
<g>
</g>
<g>
</g>
<g>
</g>
<g>
</g>
<g>
</g>
<g>
</g>
</svg>
